<svg width="32" height="32" viewBox="0 0 32 32" fill="none" xmlns="http://www.w3.org/2000/svg">
<g id="warning">
<g id="Vector">
<path fill-rule="evenodd" clip-rule="evenodd" d="M16 12.0004C16.5523 12.0004 17 12.4481 17 13.0004V18.0004C17 18.5527 16.5523 19.0004 16 19.0004C15.4477 19.0004 15 18.5527 15 18.0004V13.0004C15 12.4481 15.4477 12.0004 16 12.0004Z" fill="black"/>
<path fill-rule="evenodd" clip-rule="evenodd" d="M14.5013 3.4031C14.9566 3.13906 15.4737 3 16 3C16.5263 3 17.0433 3.13906 17.4987 3.4031C17.9532 3.66669 18.3302 4.04551 18.5916 4.5013L18.5929 4.50362L29.591 23.5003C29.8539 23.9556 29.9925 24.472 29.993 24.9977C29.9934 25.5234 29.8557 26.04 29.5937 26.4957C29.3316 26.9515 28.9544 27.3304 28.4998 27.5944C28.0452 27.8585 27.5292 27.9985 27.0035 28.0003L27 28.0003H5L4.99648 28.0003C4.47076 27.9985 3.95477 27.8585 3.50018 27.5944C3.04559 27.3304 2.66838 26.9515 2.40632 26.4957C2.14427 26.04 2.00658 25.5234 2.00704 24.9977C2.00751 24.472 2.14612 23.9556 2.40898 23.5003L13.4071 4.50362L13.4084 4.5013C13.6698 4.04551 14.0468 3.66669 14.5013 3.4031ZM14.275 5.00032L15.1404 5.50135L4.14102 24.5003C4.05354 24.652 4.0072 24.8244 4.00704 24.9994C4.00689 25.1747 4.05278 25.3469 4.14014 25.4988C4.22749 25.6507 4.35323 25.777 4.50475 25.865C4.65589 25.9528 4.82739 25.9995 5.00216 26.0003H26.9978C27.1726 25.9995 27.3441 25.9528 27.4952 25.865C27.6468 25.777 27.7725 25.6507 27.8599 25.4988C27.9472 25.3469 27.9931 25.1747 27.993 24.9994C27.9928 24.8244 27.9467 24.6525 27.8593 24.5009L16.8571 5.49702C16.7706 5.34602 16.6459 5.22052 16.4954 5.13324C16.3449 5.04597 16.174 5 16 5C15.826 5 15.6551 5.04597 15.5046 5.13324C15.3541 5.22052 15.2293 5.34601 15.1429 5.49701L14.275 5.00032Z" fill="black"/>
<path d="M16 24.0004C16.8284 24.0004 17.5 23.3288 17.5 22.5004C17.5 21.6719 16.8284 21.0004 16 21.0004C15.1716 21.0004 14.5 21.6719 14.5 22.5004C14.5 23.3288 15.1716 24.0004 16 24.0004Z" fill="black"/>
</g>
</g>
</svg>
