<svg width="17" height="17" viewBox="0 0 17 17" fill="none" xmlns="http://www.w3.org/2000/svg">
<path id="Vector" d="M7.28063 9.21937C7.35036 9.28903 7.40568 9.37175 7.44342 9.4628C7.48116 9.55384 7.50059 9.65144 7.50059 9.75C7.50059 9.84856 7.48116 9.94616 7.44342 10.0372C7.40568 10.1283 7.35036 10.211 7.28063 10.2806L4.06031 13.5L5.78063 15.2194C5.88563 15.3243 5.95716 15.458 5.98615 15.6035C6.01514 15.7491 6.00028 15.9 5.94347 16.0371C5.88665 16.1742 5.79043 16.2914 5.66699 16.3738C5.54354 16.4562 5.39842 16.5001 5.25 16.5H0.75C0.551088 16.5 0.360323 16.421 0.21967 16.2803C0.079018 16.1397 2.3235e-07 15.9489 2.3235e-07 15.75V11.25C-0.000116571 11.1016 0.0438069 10.9565 0.12621 10.833C0.208613 10.7096 0.32579 10.6133 0.462908 10.5565C0.600025 10.4997 0.750917 10.4849 0.89648 10.5139C1.04204 10.5428 1.17573 10.6144 1.28063 10.7194L3 12.4397L6.21937 9.21937C6.28903 9.14964 6.37175 9.09432 6.46279 9.05658C6.55384 9.01884 6.65144 8.99941 6.75 8.99941C6.84856 8.99941 6.94616 9.01884 7.03721 9.05658C7.12825 9.09432 7.21097 9.14964 7.28063 9.21937ZM15.75 2.3235e-07H11.25C11.1016 -0.000116571 10.9565 0.0438069 10.833 0.12621C10.7096 0.208613 10.6133 0.32579 10.5565 0.462908C10.4997 0.600025 10.4849 0.750917 10.5139 0.89648C10.5428 1.04204 10.6144 1.17573 10.7194 1.28063L12.4397 3L9.21937 6.21937C9.07864 6.36011 8.99958 6.55098 8.99958 6.75C8.99958 6.94902 9.07864 7.13989 9.21937 7.28063C9.36011 7.42136 9.55098 7.50042 9.75 7.50042C9.94902 7.50042 10.1399 7.42136 10.2806 7.28063L13.5 4.06031L15.2194 5.78063C15.3243 5.88563 15.458 5.95716 15.6035 5.98615C15.7491 6.01514 15.9 6.00028 16.0371 5.94347C16.1742 5.88665 16.2914 5.79043 16.3738 5.66699C16.4562 5.54354 16.5001 5.39842 16.5 5.25V0.75C16.5 0.551088 16.421 0.360323 16.2803 0.21967C16.1397 0.079018 15.9489 2.3235e-07 15.75 2.3235e-07Z" fill="#0080FF"/>
</svg>