<svg width="17" height="17" viewBox="0 0 17 17" fill="none" xmlns="http://www.w3.org/2000/svg">
<path d="M11.5001 14.9998C11.5001 15.1324 11.4474 15.2596 11.3537 15.3533C11.2599 15.4471 11.1327 15.4998 11.0001 15.4998H6.00011C5.8675 15.4998 5.74032 15.4471 5.64656 15.3533C5.55279 15.2596 5.50011 15.1324 5.50011 14.9998C5.50011 14.8672 5.55279 14.74 5.64656 14.6462C5.74032 14.5524 5.8675 14.4998 6.00011 14.4998H11.0001C11.1327 14.4998 11.2599 14.5524 11.3537 14.6462C11.4474 14.74 11.5001 14.8672 11.5001 14.9998ZM14.0001 6.99977C14.0018 7.83286 13.8135 8.65538 13.4496 9.40481C13.0857 10.1542 12.5558 10.8109 11.9001 11.3248C11.7763 11.4182 11.6757 11.5391 11.6063 11.6779C11.5369 11.8167 11.5006 11.9696 11.5001 12.1248V12.4998C11.5001 12.765 11.3948 13.0193 11.2072 13.2069C11.0197 13.3944 10.7653 13.4998 10.5001 13.4998H6.50011C6.23489 13.4998 5.98054 13.3944 5.793 13.2069C5.60547 13.0193 5.50011 12.765 5.50011 12.4998V12.1248C5.49968 11.9718 5.46459 11.8209 5.39748 11.6834C5.33036 11.5459 5.23297 11.4255 5.11261 11.331C4.45828 10.8207 3.92822 10.1685 3.56231 9.42373C3.19641 8.67893 3.00418 7.86084 3.00011 7.03102C2.98136 4.04977 5.39386 1.56852 8.36886 1.49977C9.10232 1.4814 9.83203 1.61014 10.5149 1.87839C11.1978 2.14663 11.8201 2.54895 12.345 3.0616C12.8698 3.57424 13.2867 4.18683 13.571 4.86322C13.8553 5.5396 14.0012 6.26608 14.0001 6.99977ZM10.8564 7.14352C10.7616 7.04963 10.6335 6.99696 10.5001 6.99696C10.3667 6.99696 10.2387 7.04963 10.1439 7.14352L8.50011 8.79352L6.85636 7.14352C6.75921 7.06379 6.63588 7.02304 6.51035 7.02921C6.38483 7.03537 6.26608 7.08801 6.17721 7.17687C6.08835 7.26574 6.03571 7.38449 6.02955 7.51001C6.02338 7.63554 6.06413 7.75887 6.14386 7.85602L8.00011 9.70602V11.9998C8.00011 12.1324 8.05279 12.2596 8.14656 12.3533C8.24032 12.4471 8.3675 12.4998 8.50011 12.4998C8.63272 12.4998 8.75989 12.4471 8.85366 12.3533C8.94743 12.2596 9.00011 12.1324 9.00011 11.9998V9.70602L10.8564 7.85602C10.9502 7.76122 11.0029 7.63319 11.0029 7.49977C11.0029 7.36634 10.9502 7.23832 10.8564 7.14352Z" fill="#1A2C47"/>
</svg>
