<svg width="40" height="40" viewBox="0 0 40 40" fill="none" xmlns="http://www.w3.org/2000/svg">
<g id="warning">
<path id="Vector" d="M36.9842 29.3748L23.2498 5.62478C22.921 5.05358 22.4475 4.57912 21.8769 4.24921C21.3063 3.91931 20.6589 3.74561 19.9998 3.74561C19.3407 3.74561 18.6933 3.91931 18.1227 4.24921C17.5522 4.57912 17.0786 5.05358 16.7498 5.62478L3.01544 29.3748C2.68179 29.9431 2.50448 30.5896 2.5015 31.2486C2.49853 31.9076 2.66999 32.5556 2.99849 33.1269C3.32698 33.6982 3.80081 34.1724 4.37185 34.5013C4.94289 34.8303 5.59081 35.0022 6.24981 34.9998H33.7498C34.4088 35.0022 35.0567 34.8303 35.6278 34.5013C36.1988 34.1724 36.6726 33.6982 37.0011 33.1269C37.3296 32.5556 37.5011 31.9076 37.4981 31.2486C37.4951 30.5896 37.3178 29.9431 36.9842 29.3748ZM18.7498 16.2498C18.7498 15.9183 18.8815 15.6003 19.1159 15.3659C19.3503 15.1315 19.6683 14.9998 19.9998 14.9998C20.3313 14.9998 20.6493 15.1315 20.8837 15.3659C21.1181 15.6003 21.2498 15.9183 21.2498 16.2498V22.4998C21.2498 22.8313 21.1181 23.1492 20.8837 23.3837C20.6493 23.6181 20.3313 23.7498 19.9998 23.7498C19.6683 23.7498 19.3503 23.6181 19.1159 23.3837C18.8815 23.1492 18.7498 22.8313 18.7498 22.4998V16.2498ZM19.9998 29.9998C19.629 29.9998 19.2665 29.8898 18.9581 29.6838C18.6498 29.4778 18.4095 29.1849 18.2675 28.8423C18.1256 28.4997 18.0885 28.1227 18.1608 27.759C18.2332 27.3953 18.4118 27.0612 18.674 26.799C18.9362 26.5367 19.2703 26.3582 19.634 26.2858C19.9977 26.2135 20.3747 26.2506 20.7173 26.3925C21.06 26.5344 21.3528 26.7747 21.5588 27.0831C21.7648 27.3914 21.8748 27.7539 21.8748 28.1248C21.8748 28.6221 21.6773 29.099 21.3256 29.4506C20.974 29.8022 20.4971 29.9998 19.9998 29.9998Z" fill="#E22D4C"/>
</g>
</svg>
