<svg width="18" height="18" viewBox="0 0 18 18" fill="none" xmlns="http://www.w3.org/2000/svg">
<g id="Icon">
<path d="M9 1L10.0412 5.16479C10.2444 5.97748 10.346 6.38382 10.5575 6.71447C10.7447 7.00694 10.9931 7.25532 11.2855 7.44247C11.6162 7.65404 12.0225 7.75563 12.8352 7.9588L17 9L12.8352 10.0412C12.0225 10.2444 11.6162 10.346 11.2855 10.5575C10.9931 10.7447 10.7447 10.9931 10.5575 11.2855C10.346 11.6162 10.2444 12.0225 10.0412 12.8352L9 17L7.9588 12.8352C7.75563 12.0225 7.65405 11.6162 7.44247 11.2855C7.25532 10.9931 7.00694 10.7447 6.71447 10.5575C6.38382 10.346 5.97748 10.2444 5.16479 10.0412L1 9L5.16479 7.9588C5.97748 7.75563 6.38382 7.65404 6.71447 7.44247C7.00694 7.25532 7.25532 7.00694 7.44247 6.71447C7.65404 6.38382 7.75563 5.97748 7.9588 5.16479L9 1Z" fill="#E6F2FF"/>
<path d="M9 1L10.0412 5.16479C10.2444 5.97748 10.346 6.38382 10.5575 6.71447C10.7447 7.00694 10.9931 7.25532 11.2855 7.44247C11.6162 7.65404 12.0225 7.75563 12.8352 7.9588L17 9L12.8352 10.0412C12.0225 10.2444 11.6162 10.346 11.2855 10.5575C10.9931 10.7447 10.7447 10.9931 10.5575 11.2855C10.346 11.6162 10.2444 12.0225 10.0412 12.8352L9 17L7.9588 12.8352C7.75563 12.0225 7.65405 11.6162 7.44247 11.2855C7.25532 10.9931 7.00694 10.7447 6.71447 10.5575C6.38382 10.346 5.97748 10.2444 5.16479 10.0412L1 9L5.16479 7.9588C5.97748 7.75563 6.38382 7.65404 6.71447 7.44247C7.00694 7.25532 7.25532 7.00694 7.44247 6.71447C7.65404 6.38382 7.75563 5.97748 7.9588 5.16479L9 1Z" fill="#E6F2FF"/>
<path d="M9 1L10.0412 5.16479C10.2444 5.97748 10.346 6.38382 10.5575 6.71447C10.7447 7.00694 10.9931 7.25532 11.2855 7.44247C11.6162 7.65404 12.0225 7.75563 12.8352 7.9588L17 9L12.8352 10.0412C12.0225 10.2444 11.6162 10.346 11.2855 10.5575C10.9931 10.7447 10.7447 10.9931 10.5575 11.2855C10.346 11.6162 10.2444 12.0225 10.0412 12.8352L9 17L7.9588 12.8352C7.75563 12.0225 7.65405 11.6162 7.44247 11.2855C7.25532 10.9931 7.00694 10.7447 6.71447 10.5575C6.38382 10.346 5.97748 10.2444 5.16479 10.0412L1 9L5.16479 7.9588C5.97748 7.75563 6.38382 7.65404 6.71447 7.44247C7.00694 7.25532 7.25532 7.00694 7.44247 6.71447C7.65404 6.38382 7.75563 5.97748 7.9588 5.16479L9 1Z" stroke="url(#paint0_linear_867_13525)" stroke-linecap="round" stroke-linejoin="round"/>
<path d="M9 1L10.0412 5.16479C10.2444 5.97748 10.346 6.38382 10.5575 6.71447C10.7447 7.00694 10.9931 7.25532 11.2855 7.44247C11.6162 7.65404 12.0225 7.75563 12.8352 7.9588L17 9L12.8352 10.0412C12.0225 10.2444 11.6162 10.346 11.2855 10.5575C10.9931 10.7447 10.7447 10.9931 10.5575 11.2855C10.346 11.6162 10.2444 12.0225 10.0412 12.8352L9 17L7.9588 12.8352C7.75563 12.0225 7.65405 11.6162 7.44247 11.2855C7.25532 10.9931 7.00694 10.7447 6.71447 10.5575C6.38382 10.346 5.97748 10.2444 5.16479 10.0412L1 9L5.16479 7.9588C5.97748 7.75563 6.38382 7.65404 6.71447 7.44247C7.00694 7.25532 7.25532 7.00694 7.44247 6.71447C7.65404 6.38382 7.75563 5.97748 7.9588 5.16479L9 1Z" stroke="url(#paint1_linear_867_13525)" stroke-linecap="round" stroke-linejoin="round"/>
</g>
<defs>
<linearGradient id="paint0_linear_867_13525" x1="9" y1="1" x2="9" y2="17" gradientUnits="userSpaceOnUse">
<stop stop-color="#005AB3"/>
<stop offset="1" stop-color="#005AB3" stop-opacity="0.4"/>
</linearGradient>
<linearGradient id="paint1_linear_867_13525" x1="9" y1="1" x2="9" y2="17" gradientUnits="userSpaceOnUse">
<stop stop-color="#005AB3"/>
<stop offset="1" stop-color="#005AB3" stop-opacity="0.4"/>
</linearGradient>
</defs>
</svg>