<svg width="73" height="72" viewBox="0 0 73 72" fill="none" xmlns="http://www.w3.org/2000/svg">
<rect x="0.5" width="72" height="72" rx="36" fill="#E6F2FF"/>
<path d="M54.5 25.5H51.5V24C51.5 22.8065 51.0259 21.6619 50.182 20.818C49.3381 19.9741 48.1935 19.5 47 19.5H20C18.8065 19.5 17.6619 19.9741 16.818 20.818C15.9741 21.6619 15.5 22.8065 15.5 24V42C15.5 43.1935 15.9741 44.3381 16.818 45.182C17.6619 46.0259 18.8065 46.5 20 46.5H41V48C41 49.1935 41.4741 50.3381 42.318 51.182C43.1619 52.0259 44.3065 52.5 45.5 52.5H54.5C55.6935 52.5 56.8381 52.0259 57.682 51.182C58.5259 50.3381 59 49.1935 59 48V30C59 28.8065 58.5259 27.6619 57.682 26.818C56.8381 25.9741 55.6935 25.5 54.5 25.5ZM20 43.5C19.6022 43.5 19.2206 43.342 18.9393 43.0607C18.658 42.7794 18.5 42.3978 18.5 42V24C18.5 23.6022 18.658 23.2206 18.9393 22.9393C19.2206 22.658 19.6022 22.5 20 22.5H47C47.3978 22.5 47.7794 22.658 48.0607 22.9393C48.342 23.2206 48.5 23.6022 48.5 24V25.5H45.5C44.3065 25.5 43.1619 25.9741 42.318 26.818C41.4741 27.6619 41 28.8065 41 30V43.5H20ZM56 48C56 48.3978 55.842 48.7794 55.5607 49.0607C55.2794 49.342 54.8978 49.5 54.5 49.5H45.5C45.1022 49.5 44.7206 49.342 44.4393 49.0607C44.158 48.7794 44 48.3978 44 48V30C44 29.6022 44.158 29.2206 44.4393 28.9393C44.7206 28.658 45.1022 28.5 45.5 28.5H54.5C54.8978 28.5 55.2794 28.658 55.5607 28.9393C55.842 29.2206 56 29.6022 56 30V48ZM38 51C38 51.3978 37.842 51.7794 37.5607 52.0607C37.2794 52.342 36.8978 52.5 36.5 52.5H29C28.6022 52.5 28.2206 52.342 27.9393 52.0607C27.658 51.7794 27.5 51.3978 27.5 51C27.5 50.6022 27.658 50.2206 27.9393 49.9393C28.2206 49.658 28.6022 49.5 29 49.5H36.5C36.8978 49.5 37.2794 49.658 37.5607 49.9393C37.842 50.2206 38 50.6022 38 51ZM53 33C53 33.3978 52.842 33.7794 52.5607 34.0607C52.2794 34.342 51.8978 34.5 51.5 34.5H48.5C48.1022 34.5 47.7206 34.342 47.4393 34.0607C47.158 33.7794 47 33.3978 47 33C47 32.6022 47.158 32.2206 47.4393 31.9393C47.7206 31.658 48.1022 31.5 48.5 31.5H51.5C51.8978 31.5 52.2794 31.658 52.5607 31.9393C52.842 32.2206 53 32.6022 53 33Z" fill="#73B9FF"/>
</svg>
