<svg width="24" height="24" viewBox="0 0 24 24" fill="white" xmlns="http://www.w3.org/2000/svg">
<circle cx="12" cy="12" r="8" fill="white"/>
<g id="circle-wavy-warning">
<path id="Vector" d="M21.1781 9.6375C20.8219 9.27188 20.4562 8.8875 20.3156 8.55938C20.175 8.23125 20.1844 7.74375 20.175 7.24688C20.1656 6.3375 20.1469 5.29688 19.425 4.575C18.7031 3.85312 17.6625 3.83437 16.7531 3.825C16.2562 3.81562 15.75 3.80625 15.4406 3.68437C15.1312 3.5625 14.7281 3.17813 14.3625 2.82188C13.7156 2.20313 12.975 1.5 12 1.5C11.025 1.5 10.2844 2.20313 9.6375 2.82188C9.27188 3.17813 8.8875 3.54375 8.55938 3.68437C8.23125 3.825 7.74375 3.81562 7.24688 3.825C6.3375 3.83437 5.29688 3.85312 4.575 4.575C3.85312 5.29688 3.83437 6.3375 3.825 7.24688C3.81562 7.74375 3.80625 8.25 3.68437 8.55938C3.5625 8.86875 3.17813 9.27188 2.82188 9.6375C2.20313 10.2844 1.5 11.025 1.5 12C1.5 12.975 2.20313 13.7156 2.82188 14.3625C3.17813 14.7281 3.54375 15.1125 3.68437 15.4406C3.825 15.7687 3.81562 16.2562 3.825 16.7531C3.83437 17.6625 3.85312 18.7031 4.575 19.425C5.29688 20.1469 6.3375 20.1656 7.24688 20.175C7.74375 20.1844 8.25 20.1938 8.55938 20.3156C8.86875 20.4375 9.27188 20.8219 9.6375 21.1781C10.2844 21.7969 11.025 22.5 12 22.5C12.975 22.5 13.7156 21.7969 14.3625 21.1781C14.7281 20.8219 15.1125 20.4562 15.4406 20.3156C15.7687 20.175 16.2562 20.1844 16.7531 20.175C17.6625 20.1656 18.7031 20.1469 19.425 19.425C20.1469 18.7031 20.1656 17.6625 20.175 16.7531C20.1844 16.2562 20.1938 15.75 20.3156 15.4406C20.4375 15.1312 20.8219 14.7281 21.1781 14.3625C21.7969 13.7156 22.5 12.975 22.5 12C22.5 11.025 21.7969 10.2844 21.1781 9.6375ZM11.25 7.5C11.25 7.30109 11.329 7.11032 11.4697 6.96967C11.6103 6.82902 11.8011 6.75 12 6.75C12.1989 6.75 12.3897 6.82902 12.5303 6.96967C12.671 7.11032 12.75 7.30109 12.75 7.5V12.75C12.75 12.9489 12.671 13.1397 12.5303 13.2803C12.3897 13.421 12.1989 13.5 12 13.5C11.8011 13.5 11.6103 13.421 11.4697 13.2803C11.329 13.1397 11.25 12.9489 11.25 12.75V7.5ZM12 17.25C11.7775 17.25 11.56 17.184 11.375 17.0604C11.19 16.9368 11.0458 16.7611 10.9606 16.5555C10.8755 16.35 10.8532 16.1238 10.8966 15.9055C10.94 15.6873 11.0472 15.4868 11.2045 15.3295C11.3618 15.1722 11.5623 15.065 11.7805 15.0216C11.9988 14.9782 12.225 15.0005 12.4305 15.0856C12.6361 15.1708 12.8118 15.315 12.9354 15.5C13.059 15.685 13.125 15.9025 13.125 16.125C13.125 16.4234 13.0065 16.7095 12.7955 16.9205C12.5845 17.1315 12.2984 17.25 12 17.25Z" fill="#E22D4C"/>
</g>
</svg>
