<svg width="185" height="185" viewBox="0 0 185 185" fill="none" xmlns="http://www.w3.org/2000/svg">
<g id="Vector">
<path d="M6.37931 0H0V6.37931H6.37931V0Z" fill="black"/>
<path d="M12.7586 0H6.37931V6.37931H12.7586V0Z" fill="black"/>
<path d="M19.1379 0H12.7586V6.37931H19.1379V0Z" fill="black"/>
<path d="M25.5172 0H19.1379V6.37931H25.5172V0Z" fill="black"/>
<path d="M31.8966 0H25.5172V6.37931H31.8966V0Z" fill="black"/>
<path d="M38.2759 0H31.8966V6.37931H38.2759V0Z" fill="black"/>
<path d="M44.6552 0H38.2759V6.37931H44.6552V0Z" fill="black"/>
<path d="M57.4138 0H51.0345V6.37931H57.4138V0Z" fill="black"/>
<path d="M70.1724 0H63.7931V6.37931H70.1724V0Z" fill="black"/>
<path d="M102.069 0H95.6897V6.37931H102.069V0Z" fill="black"/>
<path d="M108.448 0H102.069V6.37931H108.448V0Z" fill="black"/>
<path d="M121.207 0H114.828V6.37931H121.207V0Z" fill="black"/>
<path d="M133.966 0H127.586V6.37931H133.966V0Z" fill="black"/>
<path d="M146.724 0H140.345V6.37931H146.724V0Z" fill="black"/>
<path d="M153.103 0H146.724V6.37931H153.103V0Z" fill="black"/>
<path d="M159.483 0H153.103V6.37931H159.483V0Z" fill="black"/>
<path d="M165.862 0H159.483V6.37931H165.862V0Z" fill="black"/>
<path d="M172.241 0H165.862V6.37931H172.241V0Z" fill="black"/>
<path d="M178.621 0H172.241V6.37931H178.621V0Z" fill="black"/>
<path d="M185 0H178.621V6.37931H185V0Z" fill="black"/>
<path d="M6.37931 6.37931H0V12.7586H6.37931V6.37931Z" fill="black"/>
<path d="M44.6552 6.37931H38.2759V12.7586H44.6552V6.37931Z" fill="black"/>
<path d="M63.7931 6.37931H57.4138V12.7586H63.7931V6.37931Z" fill="black"/>
<path d="M70.1724 6.37931H63.7931V12.7586H70.1724V6.37931Z" fill="black"/>
<path d="M76.5517 6.37931H70.1724V12.7586H76.5517V6.37931Z" fill="black"/>
<path d="M82.931 6.37931H76.5517V12.7586H82.931V6.37931Z" fill="black"/>
<path d="M95.6897 6.37931H89.3103V12.7586H95.6897V6.37931Z" fill="black"/>
<path d="M102.069 6.37931H95.6897V12.7586H102.069V6.37931Z" fill="black"/>
<path d="M146.724 6.37931H140.345V12.7586H146.724V6.37931Z" fill="black"/>
<path d="M185 6.37931H178.621V12.7586H185V6.37931Z" fill="black"/>
<path d="M6.37931 12.7586H0V19.1379H6.37931V12.7586Z" fill="black"/>
<path d="M19.1379 12.7586H12.7586V19.1379H19.1379V12.7586Z" fill="black"/>
<path d="M25.5172 12.7586H19.1379V19.1379H25.5172V12.7586Z" fill="black"/>
<path d="M31.8966 12.7586H25.5172V19.1379H31.8966V12.7586Z" fill="black"/>
<path d="M44.6552 12.7586H38.2759V19.1379H44.6552V12.7586Z" fill="black"/>
<path d="M70.1724 12.7586H63.7931V19.1379H70.1724V12.7586Z" fill="black"/>
<path d="M76.5517 12.7586H70.1724V19.1379H76.5517V12.7586Z" fill="black"/>
<path d="M82.931 12.7586H76.5517V19.1379H82.931V12.7586Z" fill="black"/>
<path d="M89.3103 12.7586H82.931V19.1379H89.3103V12.7586Z" fill="black"/>
<path d="M102.069 12.7586H95.6897V19.1379H102.069V12.7586Z" fill="black"/>
<path d="M108.448 12.7586H102.069V19.1379H108.448V12.7586Z" fill="black"/>
<path d="M127.586 12.7586H121.207V19.1379H127.586V12.7586Z" fill="black"/>
<path d="M133.966 12.7586H127.586V19.1379H133.966V12.7586Z" fill="black"/>
<path d="M146.724 12.7586H140.345V19.1379H146.724V12.7586Z" fill="black"/>
<path d="M159.483 12.7586H153.103V19.1379H159.483V12.7586Z" fill="black"/>
<path d="M165.862 12.7586H159.483V19.1379H165.862V12.7586Z" fill="black"/>
<path d="M172.241 12.7586H165.862V19.1379H172.241V12.7586Z" fill="black"/>
<path d="M185 12.7586H178.621V19.1379H185V12.7586Z" fill="black"/>
<path d="M6.37931 19.1379H0V25.5172H6.37931V19.1379Z" fill="black"/>
<path d="M19.1379 19.1379H12.7586V25.5172H19.1379V19.1379Z" fill="black"/>
<path d="M25.5172 19.1379H19.1379V25.5172H25.5172V19.1379Z" fill="black"/>
<path d="M31.8966 19.1379H25.5172V25.5172H31.8966V19.1379Z" fill="black"/>
<path d="M44.6552 19.1379H38.2759V25.5172H44.6552V19.1379Z" fill="black"/>
<path d="M57.4138 19.1379H51.0345V25.5172H57.4138V19.1379Z" fill="black"/>
<path d="M63.7931 19.1379H57.4138V25.5172H63.7931V19.1379Z" fill="black"/>
<path d="M70.1724 19.1379H63.7931V25.5172H70.1724V19.1379Z" fill="black"/>
<path d="M76.5517 19.1379H70.1724V25.5172H76.5517V19.1379Z" fill="black"/>
<path d="M89.3103 19.1379H82.931V25.5172H89.3103V19.1379Z" fill="black"/>
<path d="M108.448 19.1379H102.069V25.5172H108.448V19.1379Z" fill="black"/>
<path d="M127.586 19.1379H121.207V25.5172H127.586V19.1379Z" fill="black"/>
<path d="M146.724 19.1379H140.345V25.5172H146.724V19.1379Z" fill="black"/>
<path d="M159.483 19.1379H153.103V25.5172H159.483V19.1379Z" fill="black"/>
<path d="M165.862 19.1379H159.483V25.5172H165.862V19.1379Z" fill="black"/>
<path d="M172.241 19.1379H165.862V25.5172H172.241V19.1379Z" fill="black"/>
<path d="M185 19.1379H178.621V25.5172H185V19.1379Z" fill="black"/>
<path d="M6.37931 25.5172H0V31.8966H6.37931V25.5172Z" fill="black"/>
<path d="M19.1379 25.5172H12.7586V31.8966H19.1379V25.5172Z" fill="black"/>
<path d="M25.5172 25.5172H19.1379V31.8966H25.5172V25.5172Z" fill="black"/>
<path d="M31.8966 25.5172H25.5172V31.8966H31.8966V25.5172Z" fill="black"/>
<path d="M44.6552 25.5172H38.2759V31.8966H44.6552V25.5172Z" fill="black"/>
<path d="M89.3103 25.5172H82.931V31.8966H89.3103V25.5172Z" fill="black"/>
<path d="M95.6897 25.5172H89.3103V31.8966H95.6897V25.5172Z" fill="black"/>
<path d="M102.069 25.5172H95.6897V31.8966H102.069V25.5172Z" fill="black"/>
<path d="M114.828 25.5172H108.448V31.8966H114.828V25.5172Z" fill="black"/>
<path d="M146.724 25.5172H140.345V31.8966H146.724V25.5172Z" fill="black"/>
<path d="M159.483 25.5172H153.103V31.8966H159.483V25.5172Z" fill="black"/>
<path d="M165.862 25.5172H159.483V31.8966H165.862V25.5172Z" fill="black"/>
<path d="M172.241 25.5172H165.862V31.8966H172.241V25.5172Z" fill="black"/>
<path d="M185 25.5172H178.621V31.8966H185V25.5172Z" fill="black"/>
<path d="M6.37931 31.8966H0V38.2759H6.37931V31.8966Z" fill="black"/>
<path d="M44.6552 31.8966H38.2759V38.2759H44.6552V31.8966Z" fill="black"/>
<path d="M57.4138 31.8966H51.0345V38.2759H57.4138V31.8966Z" fill="black"/>
<path d="M63.7931 31.8966H57.4138V38.2759H63.7931V31.8966Z" fill="black"/>
<path d="M70.1724 31.8966H63.7931V38.2759H70.1724V31.8966Z" fill="black"/>
<path d="M76.5517 31.8966H70.1724V38.2759H76.5517V31.8966Z" fill="black"/>
<path d="M82.931 31.8966H76.5517V38.2759H82.931V31.8966Z" fill="black"/>
<path d="M89.3103 31.8966H82.931V38.2759H89.3103V31.8966Z" fill="black"/>
<path d="M102.069 31.8966H95.6897V38.2759H102.069V31.8966Z" fill="black"/>
<path d="M108.448 31.8966H102.069V38.2759H108.448V31.8966Z" fill="black"/>
<path d="M146.724 31.8966H140.345V38.2759H146.724V31.8966Z" fill="black"/>
<path d="M185 31.8966H178.621V38.2759H185V31.8966Z" fill="black"/>
<path d="M6.37931 38.2759H0V44.6552H6.37931V38.2759Z" fill="black"/>
<path d="M12.7586 38.2759H6.37931V44.6552H12.7586V38.2759Z" fill="black"/>
<path d="M19.1379 38.2759H12.7586V44.6552H19.1379V38.2759Z" fill="black"/>
<path d="M25.5172 38.2759H19.1379V44.6552H25.5172V38.2759Z" fill="black"/>
<path d="M31.8966 38.2759H25.5172V44.6552H31.8966V38.2759Z" fill="black"/>
<path d="M38.2759 38.2759H31.8966V44.6552H38.2759V38.2759Z" fill="black"/>
<path d="M44.6552 38.2759H38.2759V44.6552H44.6552V38.2759Z" fill="black"/>
<path d="M57.4138 38.2759H51.0345V44.6552H57.4138V38.2759Z" fill="black"/>
<path d="M70.1724 38.2759H63.7931V44.6552H70.1724V38.2759Z" fill="black"/>
<path d="M82.931 38.2759H76.5517V44.6552H82.931V38.2759Z" fill="black"/>
<path d="M95.6897 38.2759H89.3103V44.6552H95.6897V38.2759Z" fill="black"/>
<path d="M108.448 38.2759H102.069V44.6552H108.448V38.2759Z" fill="black"/>
<path d="M121.207 38.2759H114.828V44.6552H121.207V38.2759Z" fill="black"/>
<path d="M133.966 38.2759H127.586V44.6552H133.966V38.2759Z" fill="black"/>
<path d="M146.724 38.2759H140.345V44.6552H146.724V38.2759Z" fill="black"/>
<path d="M153.103 38.2759H146.724V44.6552H153.103V38.2759Z" fill="black"/>
<path d="M159.483 38.2759H153.103V44.6552H159.483V38.2759Z" fill="black"/>
<path d="M165.862 38.2759H159.483V44.6552H165.862V38.2759Z" fill="black"/>
<path d="M172.241 38.2759H165.862V44.6552H172.241V38.2759Z" fill="black"/>
<path d="M178.621 38.2759H172.241V44.6552H178.621V38.2759Z" fill="black"/>
<path d="M185 38.2759H178.621V44.6552H185V38.2759Z" fill="black"/>
<path d="M63.7931 44.6552H57.4138V51.0345H63.7931V44.6552Z" fill="black"/>
<path d="M95.6897 44.6552H89.3103V51.0345H95.6897V44.6552Z" fill="black"/>
<path d="M114.828 44.6552H108.448V51.0345H114.828V44.6552Z" fill="black"/>
<path d="M121.207 44.6552H114.828V51.0345H121.207V44.6552Z" fill="black"/>
<path d="M127.586 44.6552H121.207V51.0345H127.586V44.6552Z" fill="black"/>
<path d="M133.966 44.6552H127.586V51.0345H133.966V44.6552Z" fill="black"/>
<path d="M38.2759 51.0345H31.8966V57.4138H38.2759V51.0345Z" fill="black"/>
<path d="M44.6552 51.0345H38.2759V57.4138H44.6552V51.0345Z" fill="black"/>
<path d="M57.4138 51.0345H51.0345V57.4138H57.4138V51.0345Z" fill="black"/>
<path d="M63.7931 51.0345H57.4138V57.4138H63.7931V51.0345Z" fill="black"/>
<path d="M76.5517 51.0345H70.1724V57.4138H76.5517V51.0345Z" fill="black"/>
<path d="M82.931 51.0345H76.5517V57.4138H82.931V51.0345Z" fill="black"/>
<path d="M95.6897 51.0345H89.3103V57.4138H95.6897V51.0345Z" fill="black"/>
<path d="M102.069 51.0345H95.6897V57.4138H102.069V51.0345Z" fill="black"/>
<path d="M108.448 51.0345H102.069V57.4138H108.448V51.0345Z" fill="black"/>
<path d="M114.828 51.0345H108.448V57.4138H114.828V51.0345Z" fill="black"/>
<path d="M140.345 51.0345H133.966V57.4138H140.345V51.0345Z" fill="black"/>
<path d="M153.103 51.0345H146.724V57.4138H153.103V51.0345Z" fill="black"/>
<path d="M165.862 51.0345H159.483V57.4138H165.862V51.0345Z" fill="black"/>
<path d="M185 51.0345H178.621V57.4138H185V51.0345Z" fill="black"/>
<path d="M6.37931 57.4138H0V63.7931H6.37931V57.4138Z" fill="black"/>
<path d="M25.5172 57.4138H19.1379V63.7931H25.5172V57.4138Z" fill="black"/>
<path d="M51.0345 57.4138H44.6552V63.7931H51.0345V57.4138Z" fill="black"/>
<path d="M57.4138 57.4138H51.0345V63.7931H57.4138V57.4138Z" fill="black"/>
<path d="M63.7931 57.4138H57.4138V63.7931H63.7931V57.4138Z" fill="black"/>
<path d="M102.069 57.4138H95.6897V63.7931H102.069V57.4138Z" fill="black"/>
<path d="M114.828 57.4138H108.448V63.7931H114.828V57.4138Z" fill="black"/>
<path d="M127.586 57.4138H121.207V63.7931H127.586V57.4138Z" fill="black"/>
<path d="M140.345 57.4138H133.966V63.7931H140.345V57.4138Z" fill="black"/>
<path d="M6.37931 63.7931H0V70.1724H6.37931V63.7931Z" fill="black"/>
<path d="M25.5172 63.7931H19.1379V70.1724H25.5172V63.7931Z" fill="black"/>
<path d="M31.8966 63.7931H25.5172V70.1724H31.8966V63.7931Z" fill="black"/>
<path d="M44.6552 63.7931H38.2759V70.1724H44.6552V63.7931Z" fill="black"/>
<path d="M51.0345 63.7931H44.6552V70.1724H51.0345V63.7931Z" fill="black"/>
<path d="M57.4138 63.7931H51.0345V70.1724H57.4138V63.7931Z" fill="black"/>
<path d="M70.1724 63.7931H63.7931V70.1724H70.1724V63.7931Z" fill="black"/>
<path d="M82.931 63.7931H76.5517V70.1724H82.931V63.7931Z" fill="black"/>
<path d="M102.069 63.7931H95.6897V70.1724H102.069V63.7931Z" fill="black"/>
<path d="M121.207 63.7931H114.828V70.1724H121.207V63.7931Z" fill="black"/>
<path d="M133.966 63.7931H127.586V70.1724H133.966V63.7931Z" fill="black"/>
<path d="M146.724 63.7931H140.345V70.1724H146.724V63.7931Z" fill="black"/>
<path d="M159.483 63.7931H153.103V70.1724H159.483V63.7931Z" fill="black"/>
<path d="M172.241 63.7931H165.862V70.1724H172.241V63.7931Z" fill="black"/>
<path d="M185 63.7931H178.621V70.1724H185V63.7931Z" fill="black"/>
<path d="M38.2759 70.1724H31.8966V76.5517H38.2759V70.1724Z" fill="black"/>
<path d="M70.1724 70.1724H63.7931V76.5517H70.1724V70.1724Z" fill="black"/>
<path d="M89.3103 70.1724H82.931V76.5517H89.3103V70.1724Z" fill="black"/>
<path d="M95.6897 70.1724H89.3103V76.5517H95.6897V70.1724Z" fill="black"/>
<path d="M108.448 70.1724H102.069V76.5517H108.448V70.1724Z" fill="black"/>
<path d="M121.207 70.1724H114.828V76.5517H121.207V70.1724Z" fill="black"/>
<path d="M127.586 70.1724H121.207V76.5517H127.586V70.1724Z" fill="black"/>
<path d="M133.966 70.1724H127.586V76.5517H133.966V70.1724Z" fill="black"/>
<path d="M140.345 70.1724H133.966V76.5517H140.345V70.1724Z" fill="black"/>
<path d="M153.103 70.1724H146.724V76.5517H153.103V70.1724Z" fill="black"/>
<path d="M159.483 70.1724H153.103V76.5517H159.483V70.1724Z" fill="black"/>
<path d="M19.1379 76.5517H12.7586V82.931H19.1379V76.5517Z" fill="black"/>
<path d="M44.6552 76.5517H38.2759V82.931H44.6552V76.5517Z" fill="black"/>
<path d="M57.4138 76.5517H51.0345V82.931H57.4138V76.5517Z" fill="black"/>
<path d="M63.7931 76.5517H57.4138V82.931H63.7931V76.5517Z" fill="black"/>
<path d="M70.1724 76.5517H63.7931V82.931H70.1724V76.5517Z" fill="black"/>
<path d="M76.5517 76.5517H70.1724V82.931H76.5517V76.5517Z" fill="black"/>
<path d="M82.931 76.5517H76.5517V82.931H82.931V76.5517Z" fill="black"/>
<path d="M95.6897 76.5517H89.3103V82.931H95.6897V76.5517Z" fill="black"/>
<path d="M102.069 76.5517H95.6897V82.931H102.069V76.5517Z" fill="black"/>
<path d="M121.207 76.5517H114.828V82.931H121.207V76.5517Z" fill="black"/>
<path d="M127.586 76.5517H121.207V82.931H127.586V76.5517Z" fill="black"/>
<path d="M146.724 76.5517H140.345V82.931H146.724V76.5517Z" fill="black"/>
<path d="M159.483 76.5517H153.103V82.931H159.483V76.5517Z" fill="black"/>
<path d="M172.241 76.5517H165.862V82.931H172.241V76.5517Z" fill="black"/>
<path d="M185 76.5517H178.621V82.931H185V76.5517Z" fill="black"/>
<path d="M6.37931 82.931H0V89.3103H6.37931V82.931Z" fill="black"/>
<path d="M12.7586 82.931H6.37931V89.3103H12.7586V82.931Z" fill="black"/>
<path d="M19.1379 82.931H12.7586V89.3103H19.1379V82.931Z" fill="black"/>
<path d="M25.5172 82.931H19.1379V89.3103H25.5172V82.931Z" fill="black"/>
<path d="M31.8966 82.931H25.5172V89.3103H31.8966V82.931Z" fill="black"/>
<path d="M38.2759 82.931H31.8966V89.3103H38.2759V82.931Z" fill="black"/>
<path d="M102.069 82.931H95.6897V89.3103H102.069V82.931Z" fill="black"/>
<path d="M108.448 82.931H102.069V89.3103H108.448V82.931Z" fill="black"/>
<path d="M121.207 82.931H114.828V89.3103H121.207V82.931Z" fill="black"/>
<path d="M127.586 82.931H121.207V89.3103H127.586V82.931Z" fill="black"/>
<path d="M140.345 82.931H133.966V89.3103H140.345V82.931Z" fill="black"/>
<path d="M146.724 82.931H140.345V89.3103H146.724V82.931Z" fill="black"/>
<path d="M153.103 82.931H146.724V89.3103H153.103V82.931Z" fill="black"/>
<path d="M178.621 82.931H172.241V89.3103H178.621V82.931Z" fill="black"/>
<path d="M185 82.931H178.621V89.3103H185V82.931Z" fill="black"/>
<path d="M12.7586 89.3103H6.37931V95.6897H12.7586V89.3103Z" fill="black"/>
<path d="M25.5172 89.3103H19.1379V95.6897H25.5172V89.3103Z" fill="black"/>
<path d="M31.8966 89.3103H25.5172V95.6897H31.8966V89.3103Z" fill="black"/>
<path d="M38.2759 89.3103H31.8966V95.6897H38.2759V89.3103Z" fill="black"/>
<path d="M44.6552 89.3103H38.2759V95.6897H44.6552V89.3103Z" fill="black"/>
<path d="M51.0345 89.3103H44.6552V95.6897H51.0345V89.3103Z" fill="black"/>
<path d="M63.7931 89.3103H57.4138V95.6897H63.7931V89.3103Z" fill="black"/>
<path d="M76.5517 89.3103H70.1724V95.6897H76.5517V89.3103Z" fill="black"/>
<path d="M102.069 89.3103H95.6897V95.6897H102.069V89.3103Z" fill="black"/>
<path d="M108.448 89.3103H102.069V95.6897H108.448V89.3103Z" fill="black"/>
<path d="M133.966 89.3103H127.586V95.6897H133.966V89.3103Z" fill="black"/>
<path d="M146.724 89.3103H140.345V95.6897H146.724V89.3103Z" fill="black"/>
<path d="M159.483 89.3103H153.103V95.6897H159.483V89.3103Z" fill="black"/>
<path d="M165.862 89.3103H159.483V95.6897H165.862V89.3103Z" fill="black"/>
<path d="M185 89.3103H178.621V95.6897H185V89.3103Z" fill="black"/>
<path d="M12.7586 95.6897H6.37931V102.069H12.7586V95.6897Z" fill="black"/>
<path d="M25.5172 95.6897H19.1379V102.069H25.5172V95.6897Z" fill="black"/>
<path d="M57.4138 95.6897H51.0345V102.069H57.4138V95.6897Z" fill="black"/>
<path d="M63.7931 95.6897H57.4138V102.069H63.7931V95.6897Z" fill="black"/>
<path d="M76.5517 95.6897H70.1724V102.069H76.5517V95.6897Z" fill="black"/>
<path d="M89.3103 95.6897H82.931V102.069H89.3103V95.6897Z" fill="black"/>
<path d="M95.6897 95.6897H89.3103V102.069H95.6897V95.6897Z" fill="black"/>
<path d="M108.448 95.6897H102.069V102.069H108.448V95.6897Z" fill="black"/>
<path d="M114.828 95.6897H108.448V102.069H114.828V95.6897Z" fill="black"/>
<path d="M127.586 95.6897H121.207V102.069H127.586V95.6897Z" fill="black"/>
<path d="M140.345 95.6897H133.966V102.069H140.345V95.6897Z" fill="black"/>
<path d="M146.724 95.6897H140.345V102.069H146.724V95.6897Z" fill="black"/>
<path d="M159.483 95.6897H153.103V102.069H159.483V95.6897Z" fill="black"/>
<path d="M165.862 95.6897H159.483V102.069H165.862V95.6897Z" fill="black"/>
<path d="M178.621 95.6897H172.241V102.069H178.621V95.6897Z" fill="black"/>
<path d="M6.37931 102.069H0V108.448H6.37931V102.069Z" fill="black"/>
<path d="M19.1379 102.069H12.7586V108.448H19.1379V102.069Z" fill="black"/>
<path d="M31.8966 102.069H25.5172V108.448H31.8966V102.069Z" fill="black"/>
<path d="M44.6552 102.069H38.2759V108.448H44.6552V102.069Z" fill="black"/>
<path d="M70.1724 102.069H63.7931V108.448H70.1724V102.069Z" fill="black"/>
<path d="M82.931 102.069H76.5517V108.448H82.931V102.069Z" fill="black"/>
<path d="M95.6897 102.069H89.3103V108.448H95.6897V102.069Z" fill="black"/>
<path d="M102.069 102.069H95.6897V108.448H102.069V102.069Z" fill="black"/>
<path d="M108.448 102.069H102.069V108.448H108.448V102.069Z" fill="black"/>
<path d="M127.586 102.069H121.207V108.448H127.586V102.069Z" fill="black"/>
<path d="M133.966 102.069H127.586V108.448H133.966V102.069Z" fill="black"/>
<path d="M140.345 102.069H133.966V108.448H140.345V102.069Z" fill="black"/>
<path d="M153.103 102.069H146.724V108.448H153.103V102.069Z" fill="black"/>
<path d="M165.862 102.069H159.483V108.448H165.862V102.069Z" fill="black"/>
<path d="M12.7586 108.448H6.37931V114.828H12.7586V108.448Z" fill="black"/>
<path d="M19.1379 108.448H12.7586V114.828H19.1379V108.448Z" fill="black"/>
<path d="M51.0345 108.448H44.6552V114.828H51.0345V108.448Z" fill="black"/>
<path d="M70.1724 108.448H63.7931V114.828H70.1724V108.448Z" fill="black"/>
<path d="M82.931 108.448H76.5517V114.828H82.931V108.448Z" fill="black"/>
<path d="M89.3103 108.448H82.931V114.828H89.3103V108.448Z" fill="black"/>
<path d="M102.069 108.448H95.6897V114.828H102.069V108.448Z" fill="black"/>
<path d="M108.448 108.448H102.069V114.828H108.448V108.448Z" fill="black"/>
<path d="M121.207 108.448H114.828V114.828H121.207V108.448Z" fill="black"/>
<path d="M127.586 108.448H121.207V114.828H127.586V108.448Z" fill="black"/>
<path d="M146.724 108.448H140.345V114.828H146.724V108.448Z" fill="black"/>
<path d="M6.37931 114.828H0V121.207H6.37931V114.828Z" fill="black"/>
<path d="M12.7586 114.828H6.37931V121.207H12.7586V114.828Z" fill="black"/>
<path d="M19.1379 114.828H12.7586V121.207H19.1379V114.828Z" fill="black"/>
<path d="M25.5172 114.828H19.1379V121.207H25.5172V114.828Z" fill="black"/>
<path d="M31.8966 114.828H25.5172V121.207H31.8966V114.828Z" fill="black"/>
<path d="M44.6552 114.828H38.2759V121.207H44.6552V114.828Z" fill="black"/>
<path d="M51.0345 114.828H44.6552V121.207H51.0345V114.828Z" fill="black"/>
<path d="M57.4138 114.828H51.0345V121.207H57.4138V114.828Z" fill="black"/>
<path d="M89.3103 114.828H82.931V121.207H89.3103V114.828Z" fill="black"/>
<path d="M102.069 114.828H95.6897V121.207H102.069V114.828Z" fill="black"/>
<path d="M114.828 114.828H108.448V121.207H114.828V114.828Z" fill="black"/>
<path d="M121.207 114.828H114.828V121.207H121.207V114.828Z" fill="black"/>
<path d="M127.586 114.828H121.207V121.207H127.586V114.828Z" fill="black"/>
<path d="M133.966 114.828H127.586V121.207H133.966V114.828Z" fill="black"/>
<path d="M153.103 114.828H146.724V121.207H153.103V114.828Z" fill="black"/>
<path d="M159.483 114.828H153.103V121.207H159.483V114.828Z" fill="black"/>
<path d="M6.37931 121.207H0V127.586H6.37931V121.207Z" fill="black"/>
<path d="M38.2759 121.207H31.8966V127.586H38.2759V121.207Z" fill="black"/>
<path d="M57.4138 121.207H51.0345V127.586H57.4138V121.207Z" fill="black"/>
<path d="M70.1724 121.207H63.7931V127.586H70.1724V121.207Z" fill="black"/>
<path d="M76.5517 121.207H70.1724V127.586H76.5517V121.207Z" fill="black"/>
<path d="M89.3103 121.207H82.931V127.586H89.3103V121.207Z" fill="black"/>
<path d="M127.586 121.207H121.207V127.586H127.586V121.207Z" fill="black"/>
<path d="M165.862 121.207H159.483V127.586H165.862V121.207Z" fill="black"/>
<path d="M172.241 121.207H165.862V127.586H172.241V121.207Z" fill="black"/>
<path d="M178.621 121.207H172.241V127.586H178.621V121.207Z" fill="black"/>
<path d="M19.1379 127.586H12.7586V133.966H19.1379V127.586Z" fill="black"/>
<path d="M44.6552 127.586H38.2759V133.966H44.6552V127.586Z" fill="black"/>
<path d="M63.7931 127.586H57.4138V133.966H63.7931V127.586Z" fill="black"/>
<path d="M70.1724 127.586H63.7931V133.966H70.1724V127.586Z" fill="black"/>
<path d="M89.3103 127.586H82.931V133.966H89.3103V127.586Z" fill="black"/>
<path d="M102.069 127.586H95.6897V133.966H102.069V127.586Z" fill="black"/>
<path d="M108.448 127.586H102.069V133.966H108.448V127.586Z" fill="black"/>
<path d="M114.828 127.586H108.448V133.966H114.828V127.586Z" fill="black"/>
<path d="M133.966 127.586H127.586V133.966H133.966V127.586Z" fill="black"/>
<path d="M140.345 127.586H133.966V133.966H140.345V127.586Z" fill="black"/>
<path d="M146.724 127.586H140.345V133.966H146.724V127.586Z" fill="black"/>
<path d="M153.103 127.586H146.724V133.966H153.103V127.586Z" fill="black"/>
<path d="M159.483 127.586H153.103V133.966H159.483V127.586Z" fill="black"/>
<path d="M178.621 127.586H172.241V133.966H178.621V127.586Z" fill="black"/>
<path d="M185 127.586H178.621V133.966H185V127.586Z" fill="black"/>
<path d="M57.4138 133.966H51.0345V140.345H57.4138V133.966Z" fill="black"/>
<path d="M82.931 133.966H76.5517V140.345H82.931V133.966Z" fill="black"/>
<path d="M95.6897 133.966H89.3103V140.345H95.6897V133.966Z" fill="black"/>
<path d="M102.069 133.966H95.6897V140.345H102.069V133.966Z" fill="black"/>
<path d="M108.448 133.966H102.069V140.345H108.448V133.966Z" fill="black"/>
<path d="M114.828 133.966H108.448V140.345H114.828V133.966Z" fill="black"/>
<path d="M121.207 133.966H114.828V140.345H121.207V133.966Z" fill="black"/>
<path d="M133.966 133.966H127.586V140.345H133.966V133.966Z" fill="black"/>
<path d="M159.483 133.966H153.103V140.345H159.483V133.966Z" fill="black"/>
<path d="M172.241 133.966H165.862V140.345H172.241V133.966Z" fill="black"/>
<path d="M178.621 133.966H172.241V140.345H178.621V133.966Z" fill="black"/>
<path d="M6.37931 140.345H0V146.724H6.37931V140.345Z" fill="black"/>
<path d="M12.7586 140.345H6.37931V146.724H12.7586V140.345Z" fill="black"/>
<path d="M19.1379 140.345H12.7586V146.724H19.1379V140.345Z" fill="black"/>
<path d="M25.5172 140.345H19.1379V146.724H25.5172V140.345Z" fill="black"/>
<path d="M31.8966 140.345H25.5172V146.724H31.8966V140.345Z" fill="black"/>
<path d="M38.2759 140.345H31.8966V146.724H38.2759V140.345Z" fill="black"/>
<path d="M44.6552 140.345H38.2759V146.724H44.6552V140.345Z" fill="black"/>
<path d="M63.7931 140.345H57.4138V146.724H63.7931V140.345Z" fill="black"/>
<path d="M76.5517 140.345H70.1724V146.724H76.5517V140.345Z" fill="black"/>
<path d="M82.931 140.345H76.5517V146.724H82.931V140.345Z" fill="black"/>
<path d="M95.6897 140.345H89.3103V146.724H95.6897V140.345Z" fill="black"/>
<path d="M114.828 140.345H108.448V146.724H114.828V140.345Z" fill="black"/>
<path d="M133.966 140.345H127.586V146.724H133.966V140.345Z" fill="black"/>
<path d="M146.724 140.345H140.345V146.724H146.724V140.345Z" fill="black"/>
<path d="M159.483 140.345H153.103V146.724H159.483V140.345Z" fill="black"/>
<path d="M165.862 140.345H159.483V146.724H165.862V140.345Z" fill="black"/>
<path d="M185 140.345H178.621V146.724H185V140.345Z" fill="black"/>
<path d="M6.37931 146.724H0V153.103H6.37931V146.724Z" fill="black"/>
<path d="M44.6552 146.724H38.2759V153.103H44.6552V146.724Z" fill="black"/>
<path d="M57.4138 146.724H51.0345V153.103H57.4138V146.724Z" fill="black"/>
<path d="M70.1724 146.724H63.7931V153.103H70.1724V146.724Z" fill="black"/>
<path d="M76.5517 146.724H70.1724V153.103H76.5517V146.724Z" fill="black"/>
<path d="M89.3103 146.724H82.931V153.103H89.3103V146.724Z" fill="black"/>
<path d="M114.828 146.724H108.448V153.103H114.828V146.724Z" fill="black"/>
<path d="M121.207 146.724H114.828V153.103H121.207V146.724Z" fill="black"/>
<path d="M127.586 146.724H121.207V153.103H127.586V146.724Z" fill="black"/>
<path d="M133.966 146.724H127.586V153.103H133.966V146.724Z" fill="black"/>
<path d="M159.483 146.724H153.103V153.103H159.483V146.724Z" fill="black"/>
<path d="M165.862 146.724H159.483V153.103H165.862V146.724Z" fill="black"/>
<path d="M178.621 146.724H172.241V153.103H178.621V146.724Z" fill="black"/>
<path d="M6.37931 153.103H0V159.483H6.37931V153.103Z" fill="black"/>
<path d="M19.1379 153.103H12.7586V159.483H19.1379V153.103Z" fill="black"/>
<path d="M25.5172 153.103H19.1379V159.483H25.5172V153.103Z" fill="black"/>
<path d="M31.8966 153.103H25.5172V159.483H31.8966V153.103Z" fill="black"/>
<path d="M44.6552 153.103H38.2759V159.483H44.6552V153.103Z" fill="black"/>
<path d="M70.1724 153.103H63.7931V159.483H70.1724V153.103Z" fill="black"/>
<path d="M76.5517 153.103H70.1724V159.483H76.5517V153.103Z" fill="black"/>
<path d="M95.6897 153.103H89.3103V159.483H95.6897V153.103Z" fill="black"/>
<path d="M102.069 153.103H95.6897V159.483H102.069V153.103Z" fill="black"/>
<path d="M121.207 153.103H114.828V159.483H121.207V153.103Z" fill="black"/>
<path d="M127.586 153.103H121.207V159.483H127.586V153.103Z" fill="black"/>
<path d="M133.966 153.103H127.586V159.483H133.966V153.103Z" fill="black"/>
<path d="M140.345 153.103H133.966V159.483H140.345V153.103Z" fill="black"/>
<path d="M146.724 153.103H140.345V159.483H146.724V153.103Z" fill="black"/>
<path d="M153.103 153.103H146.724V159.483H153.103V153.103Z" fill="black"/>
<path d="M159.483 153.103H153.103V159.483H159.483V153.103Z" fill="black"/>
<path d="M165.862 153.103H159.483V159.483H165.862V153.103Z" fill="black"/>
<path d="M172.241 153.103H165.862V159.483H172.241V153.103Z" fill="black"/>
<path d="M178.621 153.103H172.241V159.483H178.621V153.103Z" fill="black"/>
<path d="M185 153.103H178.621V159.483H185V153.103Z" fill="black"/>
<path d="M6.37931 159.483H0V165.862H6.37931V159.483Z" fill="black"/>
<path d="M19.1379 159.483H12.7586V165.862H19.1379V159.483Z" fill="black"/>
<path d="M25.5172 159.483H19.1379V165.862H25.5172V159.483Z" fill="black"/>
<path d="M31.8966 159.483H25.5172V165.862H31.8966V159.483Z" fill="black"/>
<path d="M44.6552 159.483H38.2759V165.862H44.6552V159.483Z" fill="black"/>
<path d="M63.7931 159.483H57.4138V165.862H63.7931V159.483Z" fill="black"/>
<path d="M70.1724 159.483H63.7931V165.862H70.1724V159.483Z" fill="black"/>
<path d="M76.5517 159.483H70.1724V165.862H76.5517V159.483Z" fill="black"/>
<path d="M82.931 159.483H76.5517V165.862H82.931V159.483Z" fill="black"/>
<path d="M102.069 159.483H95.6897V165.862H102.069V159.483Z" fill="black"/>
<path d="M108.448 159.483H102.069V165.862H108.448V159.483Z" fill="black"/>
<path d="M121.207 159.483H114.828V165.862H121.207V159.483Z" fill="black"/>
<path d="M159.483 159.483H153.103V165.862H159.483V159.483Z" fill="black"/>
<path d="M165.862 159.483H159.483V165.862H165.862V159.483Z" fill="black"/>
<path d="M6.37931 165.862H0V172.241H6.37931V165.862Z" fill="black"/>
<path d="M19.1379 165.862H12.7586V172.241H19.1379V165.862Z" fill="black"/>
<path d="M25.5172 165.862H19.1379V172.241H25.5172V165.862Z" fill="black"/>
<path d="M31.8966 165.862H25.5172V172.241H31.8966V165.862Z" fill="black"/>
<path d="M44.6552 165.862H38.2759V172.241H44.6552V165.862Z" fill="black"/>
<path d="M70.1724 165.862H63.7931V172.241H70.1724V165.862Z" fill="black"/>
<path d="M76.5517 165.862H70.1724V172.241H76.5517V165.862Z" fill="black"/>
<path d="M89.3103 165.862H82.931V172.241H89.3103V165.862Z" fill="black"/>
<path d="M95.6897 165.862H89.3103V172.241H95.6897V165.862Z" fill="black"/>
<path d="M133.966 165.862H127.586V172.241H133.966V165.862Z" fill="black"/>
<path d="M140.345 165.862H133.966V172.241H140.345V165.862Z" fill="black"/>
<path d="M153.103 165.862H146.724V172.241H153.103V165.862Z" fill="black"/>
<path d="M6.37931 172.241H0V178.621H6.37931V172.241Z" fill="black"/>
<path d="M44.6552 172.241H38.2759V178.621H44.6552V172.241Z" fill="black"/>
<path d="M70.1724 172.241H63.7931V178.621H70.1724V172.241Z" fill="black"/>
<path d="M76.5517 172.241H70.1724V178.621H76.5517V172.241Z" fill="black"/>
<path d="M82.931 172.241H76.5517V178.621H82.931V172.241Z" fill="black"/>
<path d="M95.6897 172.241H89.3103V178.621H95.6897V172.241Z" fill="black"/>
<path d="M102.069 172.241H95.6897V178.621H102.069V172.241Z" fill="black"/>
<path d="M108.448 172.241H102.069V178.621H108.448V172.241Z" fill="black"/>
<path d="M121.207 172.241H114.828V178.621H121.207V172.241Z" fill="black"/>
<path d="M127.586 172.241H121.207V178.621H127.586V172.241Z" fill="black"/>
<path d="M140.345 172.241H133.966V178.621H140.345V172.241Z" fill="black"/>
<path d="M146.724 172.241H140.345V178.621H146.724V172.241Z" fill="black"/>
<path d="M153.103 172.241H146.724V178.621H153.103V172.241Z" fill="black"/>
<path d="M159.483 172.241H153.103V178.621H159.483V172.241Z" fill="black"/>
<path d="M178.621 172.241H172.241V178.621H178.621V172.241Z" fill="black"/>
<path d="M185 172.241H178.621V178.621H185V172.241Z" fill="black"/>
<path d="M6.37931 178.621H0V185H6.37931V178.621Z" fill="black"/>
<path d="M12.7586 178.621H6.37931V185H12.7586V178.621Z" fill="black"/>
<path d="M19.1379 178.621H12.7586V185H19.1379V178.621Z" fill="black"/>
<path d="M25.5172 178.621H19.1379V185H25.5172V178.621Z" fill="black"/>
<path d="M31.8966 178.621H25.5172V185H31.8966V178.621Z" fill="black"/>
<path d="M38.2759 178.621H31.8966V185H38.2759V178.621Z" fill="black"/>
<path d="M44.6552 178.621H38.2759V185H44.6552V178.621Z" fill="black"/>
<path d="M63.7931 178.621H57.4138V185H63.7931V178.621Z" fill="black"/>
<path d="M82.931 178.621H76.5517V185H82.931V178.621Z" fill="black"/>
<path d="M95.6897 178.621H89.3103V185H95.6897V178.621Z" fill="black"/>
<path d="M114.828 178.621H108.448V185H114.828V178.621Z" fill="black"/>
<path d="M121.207 178.621H114.828V185H121.207V178.621Z" fill="black"/>
<path d="M127.586 178.621H121.207V185H127.586V178.621Z" fill="black"/>
<path d="M140.345 178.621H133.966V185H140.345V178.621Z" fill="black"/>
<path d="M165.862 178.621H159.483V185H165.862V178.621Z" fill="black"/>
<path d="M172.241 178.621H165.862V185H172.241V178.621Z" fill="black"/>
</g>
</svg>
